PathFileType	4	(X/Y/Z)	 s08c0303.trc
DataRate	CameraRate	NumFrames	NumMarkers	Units	OrigDataRate	OrigDataStartFrame	OrigNumFrames
200	200	4	50	mm	200	1	2000
Frame#	Time	racr			lacr			c7			jug			rlel			rdr			llel			ldr			s2			lic			ric			lasi			rasi			rpsi			lpsi			rgt			lgt			rth1			rth2			rth3			rth4			rlfc			rmfc			rsh1			rsh2			rsh3			rsh4			rlmal			rmmal			rcal			rtoe			rmt5			lth1			lth2			lth4			lth3			llfc			lmfc			llmal			lmmal			lcal			lmt5			lsh1			lsh2			lsh3			lsh4			ltoe			SBIKE			LBIKE			RBIKE			
		X1	Y1	Z1	X2	Y2	Z2	X3	Y3	Z3	X4	Y4	Z4	X5	Y5	Z5	X6	Y6	Z6	X7	Y7	Z7	X8	Y8	Z8	X9	Y9	Z9	X10	Y10	Z10	X11	Y11	Z11	X12	Y12	Z12	X13	Y13	Z13	X14	Y14	Z14	X15	Y15	Z15	X16	Y16	Z16	X17	Y17	Z17	X18	Y18	Z18	X19	Y19	Z19	X20	Y20	Z20	X21	Y21	Z21	X22	Y22	Z22	X23	Y23	Z23	X24	Y24	Z24	X25	Y25	Z25	X26	Y26	Z26	X27	Y27	Z27	X28	Y28	Z28	X29	Y29	Z29	X30	Y30	Z30	X31	Y31	Z31	X32	Y32	Z32	X33	Y33	Z33	X34	Y34	Z34	X35	Y35	Z35	X36	Y36	Z36	X37	Y37	Z37	X38	Y38	Z38	X39	Y39	Z39	X40	Y40	Z40	X41	Y41	Z41	X42	Y42	Z42	X43	Y43	Z43	X44	Y44	Z44	X45	Y45	Z45	X46	Y46	Z46	X47	Y47	Z47	X48	Y48	Z48	X49	Y49	Z49	X50	Y50	Z50	
1	0.0050	488.058179	1349.675168	-52.103694	508.738537	1360.564452	-421.755817	471.807637	1426.827580	-232.691678	457.590445	1270.529548	-223.021463	574.134717	1112.911749	11.337151	777.162503	888.561192	-61.462715	595.712847	1119.037096	-466.095267	783.387293	889.501154	-403.521701	-85.442018	1208.146258	-240.787065	91.928012	1163.473466	-377.889886	79.456336	1203.116435	-74.597501	111.058892	1117.483773	-372.184594	85.668728	1151.377764	-105.180195	-49.072266	1249.447387	-191.332297	-42.715200	1242.419488	-286.873046	-15.612367	1121.012301	-27.061550	1.579570	1062.322514	-415.034668	128.474928	1035.972195	-24.729040	216.018091	1021.074433	-24.753567	282.622958	964.687870	-26.710382	230.109104	1053.299720	-38.231333	384.357573	898.404190	-47.462998	370.255707	889.957227	-161.912389	325.232052	781.766843	-21.201040	322.577180	693.547427	-42.158582	276.441355	620.982687	-49.324231	348.917393	691.746006	-75.308342	233.743263	510.979272	-62.593911	249.848585	535.947745	-149.338394	156.983660	471.244193	-107.358495	454.440799	504.759826	-102.225827	370.239863	461.016902	-36.719625	55.263638	937.303515	-428.280326	114.109682	872.366544	-426.099021	145.871772	888.187779	-416.622571	131.597779	785.396963	-426.322094	202.911387	677.343553	-417.095699	170.940784	641.603649	-298.397764	29.378181	274.249822	-398.105059	56.622133	290.710355	-312.029894	-39.813380	249.076984	-357.669299	164.412711	184.131816	-417.507235	131.297261	544.535893	-425.118788	121.387854	461.161054	-405.623450	73.683265	387.484017	-409.351625	140.656200	458.747700	-371.668100	246.525663	210.733226	-347.950931	-212.674307	915.991873	-232.416435	-7.459503	83.339861	-427.067738	-10.555843	80.246873	-28.564253	
2	0.0100	488.067941	1349.668794	-52.155540	508.736464	1360.520959	-421.752489	471.718550	1426.811356	-232.699020	457.505371	1270.455282	-223.046598	574.121657	1112.897708	11.346675	777.173901	888.574688	-61.464978	595.657427	1118.997128	-466.097928	783.402696	889.507819	-403.555009	-85.504603	1208.142658	-240.809433	91.841399	1163.473898	-377.908248	79.393630	1203.116399	-74.593440	110.993414	1117.407020	-372.189492	85.627534	1151.355805	-105.174877	-49.174862	1249.392796	-191.271100	-42.831362	1242.484053	-286.938959	-15.671425	1121.025844	-27.053039	1.494684	1062.337432	-415.052719	128.423285	1035.981831	-24.719434	215.693584	1021.340829	-24.908779	282.565330	964.714303	-26.719639	230.073559	1053.321197	-38.242557	384.309206	898.442963	-47.473133	370.184659	889.971790	-161.892291	325.188796	781.784974	-21.178471	322.585164	693.553980	-42.150537	276.460953	620.985941	-49.302803	348.898212	691.756962	-75.308232	233.790275	510.965160	-62.584517	249.866990	535.965495	-149.360266	156.994930	471.239195	-107.362316	454.473495	504.758562	-102.238609	370.247029	461.064860	-36.668934	55.200987	937.324700	-428.277011	114.031763	872.377025	-426.115043	145.789170	888.201818	-416.623342	131.500946	785.402959	-426.321980	202.757678	677.333356	-417.077724	170.818025	641.613042	-298.365871	29.313170	274.260917	-398.109039	56.375473	290.861935	-311.949896	-39.863938	249.040384	-357.684525	164.373116	184.169408	-417.516651	131.213564	544.535714	-425.119169	121.320694	461.140871	-405.624862	73.606253	387.506588	-409.368280	140.577800	458.772849	-371.636000	246.475576	210.797993	-347.959074	-212.654228	915.981979	-232.319746	-7.480137	83.400459	-427.075784	-10.515429	80.224014	-28.569784	
3	0.0150	488.074611	1349.656317	-52.214725	508.767769	1360.483021	-421.745651	471.628934	1426.807388	-232.738851	457.471761	1270.394652	-223.060564	574.084648	1112.875511	11.391986	777.143875	888.579356	-61.469805	595.601535	1118.934672	-466.118881	783.391423	889.517776	-403.560052	-85.619818	1208.138919	-240.790943	91.749712	1163.464299	-377.914537	79.305769	1203.085292	-74.576744	110.933051	1117.497103	-372.256963	85.551403	1151.348604	-105.200233	-49.261127	1249.388161	-191.263741	-42.922199	1242.485415	-286.939360	-15.721782	1121.013922	-27.064606	1.431434	1062.343725	-415.052570	128.377956	1035.991150	-24.719870	215.643740	1021.347814	-24.916510	282.552092	964.705648	-26.720857	230.013581	1053.342671	-38.240678	384.263623	898.448370	-47.469092	370.710338	887.166047	-154.798946	325.171123	781.781599	-21.179118	322.577565	693.565809	-42.136407	276.462608	620.983532	-49.309782	348.901774	691.771741	-75.299196	233.806231	510.963282	-62.564927	249.867738	535.967580	-149.364155	157.021923	471.250110	-107.346668	454.485226	504.710010	-102.235269	370.259819	461.057515	-36.669500	55.125878	937.333048	-428.271201	113.958479	872.366463	-426.098757	145.706223	888.187466	-416.609099	131.423280	785.387203	-426.282577	202.604125	677.304023	-417.028528	170.725297	641.622963	-298.350899	29.249283	274.237119	-398.124531	56.511711	290.680380	-312.037150	-39.922226	248.989471	-357.682921	164.328185	184.189785	-417.509066	131.124025	544.529112	-425.101680	121.254067	461.135794	-405.596279	73.526351	387.506932	-409.373688	140.519441	458.752076	-371.662293	246.440786	210.857866	-347.950796	-212.664909	915.973654	-232.339908	-7.477830	83.401307	-427.063718	-10.518402	80.241195	-28.586468	
4	0.0200	488.500880	1349.651577	-53.296860	509.799740	1360.638269	-419.352364	471.676778	1426.941336	-232.869593	457.422597	1270.341484	-223.091858	574.762019	1112.591050	13.289004	773.887330	888.337432	-61.766032	594.768028	1119.789896	-469.505442	783.374031	889.540357	-403.559187	-85.699152	1208.131329	-240.789491	91.642845	1163.444537	-377.944572	79.126673	1202.957668	-74.537148	113.656879	1116.489018	-367.634986	85.456388	1151.356467	-105.143936	-49.320936	1248.437334	-191.442061	-42.659638	1242.214032	-286.886396	-15.784783	1120.996616	-27.053846	1.648475	1062.145477	-414.097338	128.589812	1035.911824	-24.712542	215.603696	1021.392763	-24.924008	282.524669	964.866040	-26.755782	230.852460	1052.954482	-37.064407	384.301968	898.544685	-48.164411	370.082230	890.015266	-161.891585	325.284985	781.844283	-21.117609	322.495908	693.798397	-42.483287	275.317710	621.257237	-50.352140	351.188305	695.206914	-80.922514	233.695252	511.005888	-62.300336	248.966175	536.481805	-148.749002	157.052524	471.253895	-107.336806	454.521332	504.685127	-102.224157	369.633323	460.538733	-36.598624	55.351535	937.266959	-427.471711	113.162861	873.506155	-428.700489	146.274865	890.705527	-422.050526	131.006922	786.428723	-427.960382	194.846903	675.591235	-417.787484	170.610328	641.619071	-298.336057	29.719352	273.299693	-396.737579	56.461469	290.660535	-312.043612	-39.978921	248.956894	-357.687205	164.303200	184.204768	-417.520903	131.216252	544.424751	-424.844481	121.325706	461.176912	-405.596962	73.459010	387.503326	-409.382508	139.994934	459.515501	-374.212868	245.604407	212.094515	-349.513463	-212.651381	915.963359	-232.237558	-7.478031	83.393797	-427.073526	-10.521152	80.244099	-28.569453	
